<svg xmlns="http://www.w3.org/2000/svg" data-name="Layer 1" viewBox="0 0 95 80" x="0px" y="0px"><defs><style>.cls-1{fill:#ffa100;}</style></defs><title>a</title><path class="cls-1" d="M9.265,20.627h3.616v1.642H9.265V20.627Zm15.064,1.642H20.715V20.627h3.614v1.642Zm-9.34,0V20.627h3.616v1.642ZM8.21,24.377H25.384a1.053,1.053,0,0,0,1.054-1.053V19.572a1.054,1.054,0,0,0-1.054-1.054H8.21a1.056,1.056,0,0,0-1.055,1.054v3.752A1.055,1.055,0,0,0,8.21,24.377ZM88.477,58.242H74.24V52.183H90.391v4.143a1.916,1.916,0,0,1-1.914,1.916Zm-18.34-6.059h1.994v6.059h-1.17V54.229a2.947,2.947,0,0,0-.824-2.046ZM68.852,64a1.286,1.286,0,0,1-.056.392,8.05,8.05,0,0,1-1.752,3.184,3.382,3.382,0,0,0-.916,2.354v.843H55.346A3.4,3.4,0,0,0,53.9,68.081a13.447,13.447,0,0,1-2.22-1.953,1.284,1.284,0,0,1-.346-.911V57.952a.953.953,0,0,1,1.906,0v3.154a1.055,1.055,0,1,0,2.109,0V48.483a.912.912,0,0,1,1.824,0V58.741a1.055,1.055,0,1,0,2.11,0V48.483a.913.913,0,0,1,1.825,0V58.741a1.055,1.055,0,1,0,2.109,0V49.715a.911.911,0,1,1,1.822,0v9.026a1.055,1.055,0,0,0,2.11,0V54.229a.852.852,0,1,1,1.7,0V64Zm-1.4,13.673h-13.5v-4.79h13.5v4.79ZM49.225,57.952a3.067,3.067,0,0,1,3.062-3.062,3.035,3.035,0,0,1,.953.155V52.183H41.763v2.862a3.024,3.024,0,0,1,.952-.155,3.066,3.066,0,0,1,3.061,3.062v.29h3.449v-.29Zm-5.558,7.265a1.283,1.283,0,0,1-.345.911,13.54,13.54,0,0,1-2.22,1.953,3.4,3.4,0,0,0-1.445,2.694H28.874v-.843a3.381,3.381,0,0,0-.915-2.354,8.052,8.052,0,0,1-1.753-3.184A1.286,1.286,0,0,1,26.15,64V54.229a.852.852,0,1,1,1.7,0v4.512a1.055,1.055,0,1,0,2.109,0V49.715a.912.912,0,0,1,1.823,0v9.026a1.055,1.055,0,1,0,2.11,0V48.483a.912.912,0,0,1,1.824,0V58.741a1.055,1.055,0,0,0,2.11,0V48.483a.913.913,0,0,1,1.825,0V61.106a1.055,1.055,0,1,0,2.109,0V57.952a.952.952,0,1,1,1.9,0v7.265ZM41.051,77.675h-13.5v-4.79h13.5v4.79ZM23.323,58.242V52.183h1.542a2.947,2.947,0,0,0-.825,2.046v4.013ZM4.61,56.326V52.183h16.6v6.059H6.526A1.918,1.918,0,0,1,4.61,56.326ZM79.06,33.739v-6.06H90.391v6.06Zm5.274,2.109h6.057V50.073H84.334V35.848ZM58.875,44.015v1.752a3.015,3.015,0,0,1,3.946,1.226,2.984,2.984,0,0,1,1.306-.3,3.025,3.025,0,0,1,2.732,1.736V44.015ZM28.6,47.737a3.014,3.014,0,0,1,3.586-.744,3.018,3.018,0,0,1,4.4-.956V44.015H28.6v3.722ZM15.942,44.015v6.058H4.61V44.015Zm-5.273-8.167v6.057H4.61V35.848Zm5.273-2.109H4.61v-6.06H15.942v6.06Zm10.544,0H18.052v-6.06h8.434v6.06Zm10.093,0H28.6v-6.06h7.984v6.06Zm10.093,0H38.688v-6.06h7.984v6.06Zm10.093,0H48.782v-6.06h7.983v6.06Zm10.094,0H58.875v-6.06h7.984v6.06Zm2.11,0v-6.06H76.95v6.06Zm-56.19,8.166V35.848h8.435v6.057Zm10.544,0V35.848H31.76v6.057Zm10.545,0V35.848h7.984v6.057Zm10.094,0V35.848h7.982v6.057Zm10.092,0V35.848h7.983v6.057Zm10.093,0V35.848h7.984v6.057Zm18.077,0H74.24V35.848h7.984v6.057ZM18.052,50.073h8.434V44.015H18.052v6.058Zm20.689-4.611a3.025,3.025,0,0,1,3.022,3.021v1.59h4.909V44.015H38.688v1.45c.018,0,.036,0,.053,0Zm14.5,3.021a3.024,3.024,0,0,1,3.021-3.021,3.223,3.223,0,0,1,.5.043v-1.49H48.782v6.058H53.24v-1.59Zm15.729,1.59V44.015H82.224v6.058ZM6.526,17.326A1.918,1.918,0,0,0,4.61,19.242V25.57H90.391V19.242a1.916,1.916,0,0,0-1.914-1.916Zm81.951-2.11H6.526A4.032,4.032,0,0,0,2.5,19.242V56.326a4.031,4.031,0,0,0,4.026,4.026H24.04V64a3.37,3.37,0,0,0,.145,1A10.133,10.133,0,0,0,26.405,69a1.287,1.287,0,0,1,.361.928v.843H26.5a1.055,1.055,0,0,0-1.054,1.055v6.9A1.055,1.055,0,0,0,26.5,79.784H42.106a1.056,1.056,0,0,0,1.055-1.054v-6.9a1.056,1.056,0,0,0-1.055-1.055H41.77a1.288,1.288,0,0,1,.564-.98A15.74,15.74,0,0,0,44.9,67.529a3.381,3.381,0,0,0,.877-2.312V60.352h3.449v4.865a3.391,3.391,0,0,0,.877,2.312A15.792,15.792,0,0,0,52.668,69.8a1.289,1.289,0,0,1,.565.98H52.9a1.055,1.055,0,0,0-1.055,1.055v6.9A1.056,1.056,0,0,0,52.9,79.784H68.5a1.055,1.055,0,0,0,1.055-1.054v-6.9A1.055,1.055,0,0,0,68.5,70.775h-.265v-.843A1.283,1.283,0,0,1,68.6,69,10.145,10.145,0,0,0,70.818,65a3.411,3.411,0,0,0,.143-1v-3.65H88.477A4.029,4.029,0,0,0,92.5,56.326V19.242A4.03,4.03,0,0,0,88.477,15.216Z"/></svg>